<svg xmlns="http://www.w3.org/2000/svg" xmlns:xlink="http://www.w3.org/1999/xlink" xmlns:lucid="lucid" width="1591.65" height="1162"><g transform="translate(-156.37057086614163 -80.41732283464557)" lucid:page-tab-id="L6LdhCrfnsHj"><path d="M0 0h1870.87v1322.84H0z" fill="#fff"/><path d="M355.43 89.42a8 8 0 0 1 8-8h1144a8 8 0 0 1 8 8v1144a8 8 0 0 1-8 8h-1144a8 8 0 0 1-8-8z" stroke="#000" stroke-width="2" fill="#fff"/><use xlink:href="#a" transform="matrix(1,0,0,1,363.43307086614163,89.41732283464557) translate(309.06201171875 18.5478515625)"/><use xlink:href="#b" transform="matrix(1,0,0,1,363.43307086614163,89.41732283464557) translate(409.86376953125 18.5478515625)"/><use xlink:href="#c" transform="matrix(1,0,0,1,363.43307086614163,89.41732283464557) translate(438.73583984375 18.5478515625)"/><use xlink:href="#b" transform="matrix(1,0,0,1,363.43307086614163,89.41732283464557) translate(505.87548828125 18.5478515625)"/><use xlink:href="#d" transform="matrix(1,0,0,1,363.43307086614163,89.41732283464557) translate(534.74755859375 18.5478515625)"/><use xlink:href="#e" transform="matrix(1,0,0,1,363.43307086614163,89.41732283464557) translate(578.51708984375 18.5478515625)"/><use xlink:href="#f" transform="matrix(1,0,0,1,363.43307086614163,89.41732283464557) translate(610.33349609375 18.5478515625)"/><use xlink:href="#b" transform="matrix(1,0,0,1,363.43307086614163,89.41732283464557) translate(698.18017578125 18.5478515625)"/><use xlink:href="#g" transform="matrix(1,0,0,1,363.43307086614163,89.41732283464557) translate(727.05224609375 18.5478515625)"/><use xlink:href="#h" transform="matrix(1,0,0,1,363.43307086614163,89.41732283464557) translate(827.61669921875 18.5478515625)"/><path d="M255.18 221.17c0 10.9-8.84 19.75-19.75 19.75-10.9 0-19.75-8.84-19.75-19.75 0-10.9 8.84-19.75 19.75-19.75 10.9 0 19.75 8.84 19.75 19.75z" stroke="#333" fill="#fff"/><path d="M235.43 240.92v47.3a27.6 27.6 0 0 0 4.28 14.76l35.73 56.44m-40-63.2l-40 63.2m0-98.75h80" stroke="#333" fill="none"/><path d="M195.43 209.42a8 8 0 0 1 8-8h64a8 8 0 0 1 8 8v164a8 8 0 0 1-8 8h-64a8 8 0 0 1-8-8z" fill="none"/><use xlink:href="#i" transform="matrix(1,0,0,1,115.43307086614163,359.4173228346456) translate(40.937499999999986 25.833333333333336)"/><path d="M1655.18 221.17c0 10.9-8.84 19.75-19.75 19.75-10.9 0-19.75-8.84-19.75-19.75 0-10.9 8.85-19.75 19.75-19.75s19.75 8.84 19.75 19.75z" stroke="#333" fill="#fff"/><path d="M1635.43 240.92v47.3a27.6 27.6 0 0 0 4.28 14.76l35.73 56.44m-40-63.2l-40 63.2m0-98.75h80" stroke="#333" fill="none"/><path d="M1595.43 209.42a8 8 0 0 1 8-8h64a8 8 0 0 1 8 8v164a8 8 0 0 1-8 8h-64a8 8 0 0 1-8-8z" fill="none"/><use xlink:href="#j" transform="matrix(1,0,0,1,1515.4330708661416,359.4173228346456) translate(8.587239583333329 25.833333333333336)"/><path d="M255.18 821.17c0 10.9-8.84 19.75-19.75 19.75-10.9 0-19.75-8.84-19.75-19.75 0-10.9 8.84-19.75 19.75-19.75 10.9 0 19.75 8.84 19.75 19.75z" stroke="#333" fill="#fff"/><path d="M235.43 840.92v47.3a27.6 27.6 0 0 0 4.28 14.76l35.73 56.44m-40-63.2l-40 63.2m0-98.75h80" stroke="#333" fill="none"/><path d="M195.43 809.42a8 8 0 0 1 8-8h64a8 8 0 0 1 8 8v164a8 8 0 0 1-8 8h-64a8 8 0 0 1-8-8z" fill="none"/><use xlink:href="#k" transform="matrix(1,0,0,1,115.43307086614163,959.4173228346456) translate(60.305989583333336 25.833333333333336)"/><path d="M1077.48 183c0 34.78-35.25 62.98-78.74 62.98-43.5 0-78.74-28.2-78.74-63 0-34.78 35.25-62.98 78.74-62.98 43.5 0 78.74 28.2 78.74 63z" stroke="#fcce14" stroke-width="3" fill="#fff"/><use xlink:href="#l" transform="matrix(1,0,0,1,920,120) translate(41.80999511718749 59.529375)"/><use xlink:href="#m" transform="matrix(1,0,0,1,920,120) translate(94.0571044921875 59.529375)"/><use xlink:href="#n" transform="matrix(1,0,0,1,920,120) translate(42.78128417968749 79.78412109375)"/><path d="M1008.35 1144.4c0 34.8-35.26 63-78.74 63s-78.73-28.2-78.73-63c0-34.78 35.25-62.98 78.74-62.98 43.5 0 78.75 28.2 78.75 63z" stroke="#fcce14" stroke-width="3" fill="#fff"/><use xlink:href="#o" transform="matrix(1,0,0,1,850.8661417322833,1081.4173228346456) translate(19.175268554687488 47.716875)"/><use xlink:href="#p" transform="matrix(1,0,0,1,850.8661417322833,1081.4173228346456) translate(125.0345166015625 47.716875)"/><use xlink:href="#q" transform="matrix(1,0,0,1,850.8661417322833,1081.4173228346456) translate(9.956586914062493 67.97162109375)"/><use xlink:href="#r" transform="matrix(1,0,0,1,850.8661417322833,1081.4173228346456) translate(73.5489697265625 67.97162109375)"/><use xlink:href="#s" transform="matrix(1,0,0,1,850.8661417322833,1081.4173228346456) translate(102.41893066406251 67.97162109375)"/><use xlink:href="#t" transform="matrix(1,0,0,1,850.8661417322833,1081.4173228346456) translate(33.140253906249995 88.2263671875)"/><use xlink:href="#u" transform="matrix(1,0,0,1,850.8661417322833,1081.4173228346456) translate(59.991279296875 88.2263671875)"/><path d="M1008.35 725.83c0 34.8-35.26 63-78.74 63s-78.73-28.2-78.73-63 35.25-63 78.74-63c43.5 0 78.75 28.2 78.75 63z" stroke="#008a0e" stroke-width="3" fill="#fff"/><use xlink:href="#v" transform="matrix(1,0,0,1,850.8661417322833,662.8346456692911) translate(11.358398437499995 67.404375)"/><use xlink:href="#w" transform="matrix(1,0,0,1,850.8661417322833,662.8346456692911) translate(95.262744140625 67.404375)"/><path d="M841.38 1111.48l-.34.88-604.8-231.25.33-.87z" stroke="#333" stroke-width=".05" fill="#333"/><path d="M855 1117.2l-14.98-.77 3.3-8.66z" fill="#333"/><path d="M856.44 1117.74l-17.1-.87 3.78-9.88zM840.7 1116l12.87.64-10.03-8.1zM236.58 880.23l-.34.9-3.28-1.27.34-.88z" stroke="#333" stroke-width=".05" fill="#333"/><path d="M597.48 203c0 34.78-35.25 62.98-78.74 62.98-43.5 0-78.74-28.2-78.74-63 0-34.78 35.25-62.98 78.74-62.98 43.5 0 78.74 28.2 78.74 63z" stroke="#000" stroke-width="3" fill="#fff"/><use xlink:href="#x" transform="matrix(1,0,0,1,440,140) translate(30.47289550781249 59.529375)"/><use xlink:href="#y" transform="matrix(1,0,0,1,440,140) translate(17.847021484374984 79.78412109375)"/><use xlink:href="#n" transform="matrix(1,0,0,1,440,140) translate(67.715546875 79.78412109375)"/><path d="M1437.48 1124.4c0 34.8-35.25 63-78.74 63-43.5 0-78.74-28.2-78.74-63 0-34.78 35.25-62.98 78.74-62.98 43.5 0 78.74 28.2 78.74 63z" stroke="#e81313" stroke-width="3" fill="#fff"/><use xlink:href="#z" transform="matrix(1,0,0,1,1280,1061.4173228346456) translate(18.281630859374992 59.529375)"/><use xlink:href="#p" transform="matrix(1,0,0,1,1280,1061.4173228346456) translate(126.92815429687501 59.529375)"/><use xlink:href="#A" transform="matrix(1,0,0,1,1280,1061.4173228346456) translate(49.06287109374999 79.78412109375)"/><path d="M1492.9 164.4c0 34.8-35.24 63-78.73 63-43.48 0-78.74-28.2-78.74-63 0-34.78 35.26-62.98 78.74-62.98 43.5 0 78.74 28.2 78.74 63z" stroke="#fcce14" stroke-width="3" fill="#fff"/><use xlink:href="#l" transform="matrix(1,0,0,1,1335.4330708661416,101.41732283464557) translate(41.80999511718749 59.529375)"/><use xlink:href="#m" transform="matrix(1,0,0,1,1335.4330708661416,101.41732283464557) translate(94.0571044921875 59.529375)"/><use xlink:href="#B" transform="matrix(1,0,0,1,1335.4330708661416,101.41732283464557) translate(23.43383300781249 79.78412109375)"/><path d="M930.08 1079.42h-.95v-5.05h.95zm0-10.1h-.95v-10.1h.95zm0-15.15h-.95v-10.1h.95zm0-15.15h-.95v-10.1h.95zm0-15.16h-.95v-10.1h.95zm0-15.15h-.95v-10.1h.95zm0-15.14h-.95v-10.1h.95zm0-15.15h-.95v-10.1h.95zm0-36.7h-.95V938h.95zm0-8.74h-.95v-10.1h.95zm0-15.15h-.95v-10.1h.95zm0-15.14h-.95v-10.1h.95zm0-15.15h-.95v-10.1h.95zm0-15.14h-.95v-10.1h.95zm0-15.15h-.95v-10.1h.95zm0-15.15h-.95v-10.1h.95zm0-15.15h-.95v-10.1h.95zm0-15.15h-.95v-5.05h.95z" stroke="#333" stroke-width=".05" fill="#333"/><path d="M934.24 806.2h-9.27l4.64-14.26z" fill="#333"/><path d="M934.9 806.68H924.3l5.3-16.28zm-9.27-.95h7.96l-4-12.26z" stroke="#333" stroke-width=".05" fill="#333"/><path d="M930.08 1079.93h-.94v-.53h.95z" fill="#333"/><path stroke="#333" stroke-width=".05" fill="#333"/><use xlink:href="#C" transform="matrix(1,0,0,1,868.8104007917503,941.6901322452628) translate(0.005000000000002558 19.375)"/><path d="M1634.77 281.3L1007.4 678.25l-.5-.8 627.36-396.98z" stroke="#333" stroke-width=".05" fill="#333"/><path d="M1009.2 682.05l-14.53 3.7 9.58-11.54z" fill="#333"/><path d="M1009.95 682.35l-16.58 4.23 10.93-13.17zm-13.98 2.6l12.48-3.2-4.26-6.73zM1637.72 279.4l-2.97 1.9-.5-.8 2.96-1.9zM876.88 658.22l-.75.6-3.03-3.86.75-.58zm-6.06-7.7l-.75.6-6.06-7.68.76-.6zm-9.1-11.5l-.74.58-6.06-7.7.75-.57zm-9.08-11.54l-.75.6-6.07-7.7.75-.58zm-27.28-34.57l-.74.6-6.06-7.7.74-.57zm-9.1-11.52l-.73.6-3.03-3.85.74-.6z" stroke="#333" stroke-width=".05" fill="#333"/><path d="M885.65 670.1l-12.47-8.33 7.28-5.74z" fill="#333"/><path d="M886.6 671.3l-14.23-9.5 8.3-6.54zm-12.62-9.56l10.72 7.16-4.46-12.1z" stroke="#333" stroke-width=".05" fill="#333"/><path d="M813.25 577.55l-.75.6-.38-.5.87-.42z" fill="#333"/><path stroke="#333" stroke-width=".05" fill="#333"/><use xlink:href="#C" transform="matrix(1,0,0,1,774.6818804328581,594.3988805780904) translate(0.005000000000002558 19.375)"/><path d="M725.2 468.7l-3.55-4.34M718.1 460l-7.12-8.7m-3.56-4.34l-7.1-8.7m-3.57-4.34l-3.56-4.35" stroke="#333" fill="none"/><path d="M725.96 468.88l-.78.4-.1.04-.25-.32.74-.6z" stroke="#333" stroke-width=".05" fill="#333"/><path d="M683.85 418.14l12.6 8.1-7.16 5.88z" stroke="#333" fill="#333"/><use xlink:href="#C" transform="matrix(1,0,0,1,713.0537997627513,429.4510723907764) translate(0.005000000000002558 19.375)"/><path d="M836.67 747.7L236.42 880.1" stroke="#333" fill="none"/><path d="M851.1 744.53l-12.94 7.6-2-9.06z" stroke="#333" fill="#333"/><path d="M236.43 880.08l-3.43.75" stroke="#333" fill="none"/><path d="M857.48 965.83c0 34.8-35.25 63-78.74 63-43.5 0-78.74-28.2-78.74-63s35.25-63 78.74-63c43.5 0 78.74 28.2 78.74 63z" stroke="#000" stroke-width="3" fill="#fff"/><use xlink:href="#D" transform="matrix(1,0,0,1,700,902.8346456692911) translate(38.9068896484375 47.716875)"/><use xlink:href="#E" transform="matrix(1,0,0,1,700,902.8346456692911) translate(33.19069335937499 67.97162109375)"/><use xlink:href="#F" transform="matrix(1,0,0,1,700,902.8346456692911) translate(34.26824218749999 88.2263671875)"/><use xlink:href="#A" transform="matrix(1,0,0,1,700,902.8346456692911) translate(63.857499999999995 88.2263671875)"/><path d="M683.47 952.4l-447.04-71.94" stroke="#333" fill="none"/><path d="M698.05 954.74l-14.82 2.3 1.47-9.14z" stroke="#333" fill="#333"/><path d="M236.44 880.46l-3.47-.56M544.36 345.7l-307.94-65.2" stroke="#333" fill="none"/><path d="M558.8 348.75l-14.9 1.58 1.9-9.07z" stroke="#333" fill="#333"/><path d="M236.44 280.5l-3.44-.72M684.1 485.56L236.4 280.74" stroke="#333" fill="none"/><path d="M697.52 491.7l-14.9-1.7 3.85-8.44z" stroke="#333" fill="#333"/><path d="M236.4 280.74l-3.2-1.46" stroke="#333" fill="none"/><path d="M852.77 676.94l-.5.8L236.1 281.3l.5-.8z" stroke="#333" stroke-width=".05" fill="#333"/><path d="M864.93 685.33l-14.5-3.82 5.02-7.78z" fill="#333"/><path d="M866.23 686.16l-16.55-4.36 5.72-8.9zm-15.05-4.94l12.46 3.28-8.15-9.98zM236.62 280.5l-.5.8-2.97-1.9.52-.8z" stroke="#333" stroke-width=".05" fill="#333"/><path d="M717.48 363c0 34.78-35.25 62.98-78.74 62.98-43.5 0-78.74-28.2-78.74-63 0-34.78 35.25-62.98 78.74-62.98 43.5 0 78.74 28.2 78.74 63z" stroke="#000" stroke-width="3" fill="#fff"/><use xlink:href="#v" transform="matrix(1,0,0,1,560,300) translate(30.1527197265625 47.716875)"/><use xlink:href="#p" transform="matrix(1,0,0,1,560,300) translate(114.0570654296875 47.716875)"/><use xlink:href="#G" transform="matrix(1,0,0,1,560,300) translate(37.481953125 67.97162109375)"/><use xlink:href="#m" transform="matrix(1,0,0,1,560,300) translate(98.385146484375 67.97162109375)"/><use xlink:href="#H" transform="matrix(1,0,0,1,560,300) translate(46.112119140625 88.2263671875)"/><path d="M848.35 523c0 34.78-35.26 62.98-78.74 62.98s-78.73-28.2-78.73-63c0-34.78 35.25-62.98 78.74-62.98 43.5 0 78.75 28.2 78.75 63z" stroke="#e81313" stroke-width="3" fill="#fff"/><use xlink:href="#I" transform="matrix(1,0,0,1,690.8661417322833,460) translate(21.218725585937488 47.716875)"/><use xlink:href="#p" transform="matrix(1,0,0,1,690.8661417322833,460) translate(122.9910595703125 47.716875)"/><use xlink:href="#G" transform="matrix(1,0,0,1,690.8661417322833,460) translate(37.481953125 67.97162109375)"/><use xlink:href="#m" transform="matrix(1,0,0,1,690.8661417322833,460) translate(98.385146484375 67.97162109375)"/><use xlink:href="#H" transform="matrix(1,0,0,1,690.8661417322833,460) translate(46.112119140625 88.2263671875)"/><path d="M1624.27 315.88l-239.3 730.82-.9-.3 239.3-730.82z" stroke="#333" stroke-width=".05" fill="#333"/><path d="M1388.78 1048.47l-8.85 12.1.04-15z" fill="#333"/><path d="M1389.55 1048.22l-10.1 13.83.04-17.12zm-9.14 10.9l7.6-10.4-7.56-2.48zM1625.36 312.55l-1.1 3.34-.9-.3 1.1-3.34z" stroke="#333" stroke-width=".05" fill="#333"/><path d="M1494.13 209.16l102.42 50.78" stroke="#333" fill="none"/><path d="M1480.9 202.6l14.84 2.2-4.12 8.3z" stroke="#333" fill="#333"/><path d="M1596.54 259.94l3.14 1.56" stroke="#333" fill="none"/><path d="M1634.5 279.68l-.13.94-541-81.35.16-.94z" stroke="#333" stroke-width=".05" fill="#333"/><path d="M1092.27 203.3l-13.42-6.7 14.8-2.46z" fill="#333"/><path d="M1092.64 204.03l-15.3-7.66 16.88-2.8zm-12.27-7.2l11.53 5.76 1.18-7.88zM1637.97 280.2l-.14.94-3.47-.52.14-.94z" stroke="#333" stroke-width=".05" fill="#333"/><path d="M1375.25 299.2l259.18-18.83" stroke="#333" fill="none"/><path d="M1360.53 300.27l13.9-5.65.66 9.24z" stroke="#333" fill="#333"/><path d="M1634.42 280.37l3.5-.25" stroke="#333" fill="none"/><path d="M1193.07 265.76l-.38.87-4.56-1.95.37-.87zm-9.1-3.9l-.38.87-9.1-3.9.36-.87zM1170.3 256l-.36.88-4.17-1.8h2.4zm-58.6-25.1h-2.4l-3.08-1.33.38-.87zm-9.65-4.15l-.38.87-9.1-3.9.38-.87zm-13.66-5.85l-.38.87-9.1-3.9.37-.87zm-13.66-5.85l-.37.87-4.55-1.95.37-.87z" stroke="#333" stroke-width=".05" fill="#333"/><path d="M1070.2 213.1l-.37.88-.56-.24.55-.8z" fill="#333"/><path stroke="#333" stroke-width=".05" fill="#333"/><path d="M1206.45 272l-14.94-1.35 3.66-8.52z" fill="#333"/><path d="M1207.86 272.62l-17.04-1.56 4.16-9.72zm-15.65-2.38l12.84 1.16-9.7-8.48z" stroke="#333" stroke-width=".05" fill="#333"/><use xlink:href="#C" transform="matrix(1,0,0,1,1077.9442590634899,230.8925166235638) translate(0.005000000000002558 19.375)"/><path d="M1084.32 179.64l-4.96.22-.05-.95 4.98-.2zm14.9-.67l-9.93.45-.05-.95 9.93-.45zm14.9-.66l-9.93.45-.06-.95 9.94-.44zm14.9-.66l-9.93.44-.06-.95 9.93-.44zm134.08-6l-9.93.45-.04-.96 9.93-.45zm14.9-.66l-9.93.44-.04-.95 9.93-.44zm14.9-.67l-9.93.45-.04-.94 9.93-.44zm14.9-.66l-9.93.45-.05-.96 9.94-.45zm9.93-.44l-4.96.22-.05-.95 4.97-.22z" stroke="#333" stroke-width=".05" fill="#333"/><path d="M1079.37 179.86l-.5.02-.07-.94.53-.03z" fill="#333"/><path stroke="#333" stroke-width=".05" fill="#333"/><path d="M1332.46 168.06l-14.04 5.27-.42-9.26z" fill="#333"/><path d="M1334 168l-16.03 6-.47-10.56zm-15.14 4.66l12.07-4.53-12.42-3.43z" stroke="#333" stroke-width=".05" fill="#333"/><use xlink:href="#C" transform="matrix(1,0,0,1,1129.5423411584877,162.32217026570615) translate(0.005000000000002558 19.375)"/><path d="M940.94 640.6l-.63 4.9-.93-.1.63-4.92zm1.88-14.74l-1.25 9.83-.95-.13 1.25-9.83zm1.87-14.73l-1.26 9.82-.94-.12 1.25-9.82zm1.87-14.74l-1.25 9.82-.94-.12 1.25-9.83zm1.88-14.74l-1.25 9.82-.95-.12 1.25-9.82zm1.87-14.73l-1.25 9.82-.94-.12 1.25-9.82zm1.88-14.74l-1.25 9.8-.95-.1 1.26-9.83zm1.88-14.74l-1.26 9.82-.94-.12 1.25-9.82zm1.87-14.74l-1.25 9.82-.94-.12 1.25-9.82zm1.88-14.73l-1.25 9.8-.95-.1 1.26-9.83zm1.88-14.75l-1.25 9.82-.94-.12 1.26-9.82zm1.88-14.73l-1.25 9.82-.94-.12 1.24-9.82zm1.88-14.74l-1.25 9.83-.94-.12 1.26-9.82zm1.88-14.73l-1.26 9.82-.94-.12 1.25-9.82zm1.87-14.74l-1.24 9.83-.94-.12 1.25-9.8zm1.9-14.72l-1.26 9.82-.95-.12 1.25-9.82zm1.87-14.74l-1.26 9.83-.93-.12 1.25-9.83zm1.87-14.73l-1.25 9.83-.95-.12 1.25-9.8zm1.88-14.73l-1.25 9.83-.95-.12 1.26-9.83zm1.88-14.73l-1.26 9.82-.94-.12 1.25-9.82zm.62-4.9l-.94-.13.97-7.6h.96zm5-39.3l-.93 7.35h-.97l.95-7.5zm1.88-14.74l-1.25 9.82-.94-.12 1.26-9.82zm1.88-14.74l-1.25 9.83-.95-.13 1.25-9.83zm1.87-14.73l-1.25 9.82-.94-.12 1.25-9.82zm1.88-14.74l-1.25 9.82-.94-.12 1.25-9.83zm1.25-9.83l-.62 4.9-.95-.1.64-4.92z" stroke="#333" stroke-width=".05" fill="#333"/><path d="M944.38 646.53l-6.4 13.57-2.8-14.74z" fill="#333"/><path d="M945.1 646.14l-7.32 15.48-3.2-16.8zm-6.93 12.43l5.5-11.65-7.9-1z" stroke="#333" stroke-width=".05" fill="#333"/><path d="M991.05 247.16l-.07.52-.94-.12.06-.5z" fill="#333"/><path stroke="#333" stroke-width=".05" fill="#333"/><use xlink:href="#C" transform="matrix(1,0,0,1,918.4713514991358,323.79254478463133) translate(0.005000000000002558 19.375)"/><path d="M1173.35 845.83c0 34.8-35.26 63-78.74 63s-78.73-28.2-78.73-63 35.25-63 78.74-63c43.5 0 78.75 28.2 78.75 63z" stroke="#e81313" stroke-width="3" fill="#fff"/><use xlink:href="#J" transform="matrix(1,0,0,1,1015.8661417322833,782.8346456692911) translate(44.270317382812486 35.904375)"/><use xlink:href="#K" transform="matrix(1,0,0,1,1015.8661417322833,782.8346456692911) translate(23.233574218749993 56.15912109375)"/><use xlink:href="#L" transform="matrix(1,0,0,1,1015.8661417322833,782.8346456692911) translate(53.198828125 56.15912109375)"/><use xlink:href="#q" transform="matrix(1,0,0,1,1015.8661417322833,782.8346456692911) translate(10.508320312499999 76.4138671875)"/><use xlink:href="#M" transform="matrix(1,0,0,1,1015.8661417322833,782.8346456692911) translate(74.10070312500001 76.4138671875)"/><use xlink:href="#s" transform="matrix(1,0,0,1,1015.8661417322833,782.8346456692911) translate(101.86719726562501 76.4138671875)"/><use xlink:href="#t" transform="matrix(1,0,0,1,1015.8661417322833,782.8346456692911) translate(33.140253906249995 96.66861328125)"/><use xlink:href="#u" transform="matrix(1,0,0,1,1015.8661417322833,782.8346456692911) translate(59.991279296875 96.66861328125)"/><path d="M884.58 1090.37l-.73.6-3.32-3.92.72-.6zm-6.65-7.86l-.72.62-6.64-7.87.73-.6zm-9.96-11.8l-.73.62-3.47-4.1h1.25zm-23.4-27.68h-1.24l-2.67-3.16.73-.6zm-6.5-7.7l-.73.6-3.32-3.92.73-.6z" stroke="#333" stroke-width=".05" fill="#333"/><path d="M884.95 1090.82l-.83.48-.28-.33.73-.6z" fill="#333"/><path stroke="#333" stroke-width=".05" fill="#333"/><path d="M837.6 1028.32l-7.08 5.98-5.66-13.9z" fill="#333"/><path d="M838.4 1028.26l-8.07 6.83-6.47-15.86zm-7.7 5.26l6.1-5.14-10.95-6.8z" stroke="#333" stroke-width=".05" fill="#333"/><use xlink:href="#C" transform="matrix(1,0,0,1,793.3773299273657,1043.0185008777037) translate(0.005000000000002558 19.375)"/><path d="M428.08 230.44l-191.66 49.6" stroke="#333" fill="none"/><path d="M442.38 226.74l-12.65 8.06-2.33-8.97z" stroke="#333" fill="#333"/><path d="M236.43 280.04l-3.4.88M1155.42 783.23l479.17-502.05" stroke="#333" fill="none"/><path d="M1145.23 793.9l6.5-13.5 6.7 6.4z" stroke="#333" fill="#333"/><path d="M1634.58 281.2l2.42-2.55" stroke="#333" fill="none"/><path d="M972.86 1067.12l-2.35 4.26-.83-.46 2.36-4.26zm7.05-12.76l-4.7 8.5-.82-.45 4.7-8.5zm7.07-12.77l-4.7 8.5-.84-.46 4.7-8.5zm7.05-12.78l-4.7 8.52-.83-.46 4.7-8.52zm7.06-12.76l-4.7 8.5-.84-.45 4.7-8.5zm2.35-4.26l-.83-.46 2.28-4.12h1.08zm18.8-34.04l-2.9 5.26h-1.08l3.16-5.72zm7.07-12.77l-4.7 8.5-.84-.46 4.7-8.5zm7.05-12.77l-4.7 8.5-.83-.45 4.7-8.5zm7.06-12.77l-4.7 8.5-.83-.45 4.7-8.5zm7.06-12.77l-4.7 8.5-.83-.46 4.7-8.5zm7.06-12.78l-4.7 8.52-.84-.46 4.7-8.5zm4.7-8.5l-2.35 4.25-.83-.46 2.35-4.25z" stroke="#333" stroke-width=".05" fill="#333"/><path d="M1062.5 904.9l-.3.52-.82-.45.2-.4z" fill="#333"/><path stroke="#333" stroke-width=".05" fill="#333"/><path d="M973.9 1073.83l-10.95 10.24 2.84-14.72z" fill="#333"/><path d="M974.7 1073.73l-12.5 11.7 3.25-16.82zm-11 9l9.4-8.8-6.97-3.85z" stroke="#333" stroke-width=".05" fill="#333"/><g><use xlink:href="#C" transform="matrix(1,0,0,1,951.3104007901138,983.0185008752686) translate(0.005000000000002558 19.375)"/></g><path d="M1299.18 1060.9l-.7.65-3.44-3.64.7-.64zm-6.9-7.28l-.7.65-6.9-7.27.7-.66zm-10.35-10.92l-.7.66-6.9-7.28.7-.65zm-10.35-10.9l-.7.64-6.9-7.28.7-.65zm-10.35-10.93l-.7.66-6.9-7.28.7-.65zm-10.35-10.9l-.7.64-6.9-7.27.7-.65zm-10.35-10.93l-.7.65-6.9-7.28.7-.66zm-10.35-10.9l-.7.64-6.9-7.28.7-.65zm-31.42-33.15h-1.3l-5.92-6.25.7-.65zm-9.98-10.54l-.7.65-6.9-7.26.7-.66zm-10.35-10.92l-.7.66-6.9-7.28.7-.65zm-10.35-10.9l-.7.64-6.9-7.27.7-.65zm-10.35-10.93l-.7.67-6.9-7.28.7-.66zm-10.35-10.9l-.7.65-3.44-3.64.7-.64z" stroke="#333" stroke-width=".05" fill="#333"/><path d="M1143.94 897.17l-.7.65-.34-.37.34-.33.33-.2z" fill="#333"/><path stroke="#333" stroke-width=".05" fill="#333"/><path d="M1309 1071.94l-13.2-7.16 6.74-6.38z" fill="#333"/><path d="M1310.05 1073.06l-15.04-8.18 7.7-7.28zm-13.44-8.4l11.33 6.16-5.54-11.63z" stroke="#333" stroke-width=".05" fill="#333"/><g><use xlink:href="#N" transform="matrix(1,0,0,1,1145.5375646346683,954.9856404709398) translate(0.0049999999999954525 19.375)"/></g><path d="M1412.9 823c0 34.78-35.24 62.98-78.73 62.98-43.48 0-78.74-28.2-78.74-63 0-34.78 35.26-62.98 78.74-62.98 43.5 0 78.74 28.2 78.74 63z" stroke="#e81313" stroke-width="3" fill="#fff"/><g><use xlink:href="#O" transform="matrix(1,0,0,1,1255.4330708661416,760) translate(38.216201171875 47.716875)"/><use xlink:href="#q" transform="matrix(1,0,0,1,1255.4330708661416,760) translate(35.67962402343749 67.97162109375)"/><use xlink:href="#P" transform="matrix(1,0,0,1,1255.4330708661416,760) translate(99.2720068359375 67.97162109375)"/><use xlink:href="#Q" transform="matrix(1,0,0,1,1255.4330708661416,760) translate(48.1514892578125 88.2263671875)"/></g><path d="M1375.36 750l259.33-468.36" stroke="#333" fill="none"/><path d="M1368.2 762.9l2.86-14.72 8.1 4.5z" stroke="#333" fill="#333"/><path d="M1634.68 281.65l1.7-3.07" stroke="#333" fill="none"/><path d="M1352.64 1043.7l-.95.08-.43-5.2.94-.08zm-.85-10.4l-.96.08-.84-10.4.94-.07zm-1.28-15.6l-.95.1-.84-10.4.94-.08zm-1.27-15.58l-.95.08-.84-10.4.94-.07zm-1.27-15.6l-.95.1-.85-10.4.95-.08zm-1.27-15.58l-.94.08-.84-10.3h.95zm-2.8-34.43h-.95l-.58-7.05.95-.08zm-1-12.33l-.95.08-.85-10.4.95-.07zm-1.27-15.6l-.95.1-.85-10.4.95-.08zm-1.28-15.58l-.94.07-.42-5.2.95-.08z" stroke="#333" stroke-width=".05" fill="#333"/><path d="M1339.93 887.8l-.94.1-.06-.53.95-.07z" fill="#333"/><path stroke="#333" stroke-width=".05" fill="#333"/><path d="M1353.36 1058.45l-5.77-13.84 9.23-.74z" fill="#333"/><path d="M1353.5 1060l-6.6-15.8 10.54-.87zm-5.22-14.97l4.96 11.9 2.97-12.55z" stroke="#333" stroke-width=".05" fill="#333"/><g><use xlink:href="#N" transform="matrix(1,0,0,1,1280.3733170198961,936.5070433889592) translate(0.0049999999999954525 19.375)"/></g><path d="M1357.48 303c0 34.78-35.25 62.98-78.74 62.98-43.5 0-78.74-28.2-78.74-63 0-34.78 35.25-62.98 78.74-62.98 43.5 0 78.74 28.2 78.74 63z" stroke="#fcce14" stroke-width="3" fill="#fff"/><g><use xlink:href="#l" transform="matrix(1,0,0,1,1200,240) translate(41.80999511718749 59.529375)"/><use xlink:href="#m" transform="matrix(1,0,0,1,1200,240) translate(94.0571044921875 59.529375)"/><use xlink:href="#R" transform="matrix(1,0,0,1,1200,240) translate(18.472319335937478 79.78412109375)"/></g><path d="M1634.58 281.03L861.64 498.65l-.26-.92 772.94-217.6z" stroke="#333" stroke-width=".05" fill="#333"/><path d="M862.3 502.8l-15-.6 12.47-8.34z" fill="#333"/><path d="M862.92 503.3l-17.1-.7 14.23-9.5zm-14.14-1.53l12.87.52-2.16-7.68zM1637.95 280.08l-3.38.96-.26-.92 3.4-.95z" stroke="#333" stroke-width=".05" fill="#333"/><path d="M537.48 725.83c0 34.8-35.25 63-78.74 63-43.5 0-78.74-28.2-78.74-63s35.25-63 78.74-63c43.5 0 78.74 28.2 78.74 63z" stroke="#000" stroke-width="3" fill="#fff"/><g><use xlink:href="#I" transform="matrix(1,0,0,1,380,662.8346456692911) translate(22.344023437499995 51.654375)"/><use xlink:href="#S" transform="matrix(1,0,0,1,380,662.8346456692911) translate(124.11635742187501 51.654375)"/><use xlink:href="#T" transform="matrix(1,0,0,1,380,662.8346456692911) translate(42.262246093749994 71.90912109375)"/><use xlink:href="#m" transform="matrix(1,0,0,1,380,662.8346456692911) translate(92.604853515625 71.90912109375)"/><use xlink:href="#u" transform="matrix(1,0,0,1,380,662.8346456692911) translate(47.0657666015625 92.1638671875)"/></g><path d="M1197.48 503c0 34.78-35.25 62.98-78.74 62.98-43.5 0-78.74-28.2-78.74-63 0-34.78 35.25-62.98 78.74-62.98 43.5 0 78.74 28.2 78.74 63z" stroke="#e81313" stroke-width="3" fill="#fff"/><g><use xlink:href="#l" transform="matrix(1,0,0,1,1040,440) translate(41.80999511718749 59.529375)"/><use xlink:href="#m" transform="matrix(1,0,0,1,1040,440) translate(94.0571044921875 59.529375)"/><use xlink:href="#U" transform="matrix(1,0,0,1,1040,440) translate(43.69266601562499 79.78412109375)"/></g><path d="M1205.27 467.2l429.2-186.5" stroke="#333" fill="none"/><path d="M1191.73 473.07l11.23-9.94 3.7 8.5z" stroke="#333" fill="#333"/><path d="M1634.46 280.72l3.22-1.4" stroke="#333" fill="none"/><defs><path fill="#333" d="M645 0H180v-1490h484c435 0 692 280 692 742 0 466-257 748-711 748zM370-168h263c363 0 539-218 539-580 0-358-176-574-521-574H370v1154" id="V"/><path fill="#333" d="M370-1490V0H180v-1490h190" id="W"/><path fill="#333" d="M52 0l541-1490h220L1361 0h-200l-149-416H398L254 0H52zm404-582h497c-103-290-145-390-251-756-108 377-145 460-246 756" id="X"/><path fill="#333" d="M789 20c-398 0-667-293-667-764 0-473 273-766 655-766 315 0 558 198 612 487h-196c-61-191-204-311-415-311-262 0-471 207-471 590 0 380 208 588 482 588 249 0 420-165 425-427H828v-166h572v163c0 370-256 606-611 606" id="Y"/><path fill="#333" d="M180 0v-1490h510c348 0 508 194 508 460 0 198-88 351-276 417L1256 0h-220L726-579c-117 2-238 0-356 1V0H180zm190-747h312c235 0 327-108 327-283 0-177-92-293-329-293H370v576" id="Z"/><path fill="#333" d="M180 0v-1490h270l367 940c28 72 75 218 110 339 35-117 81-264 110-339l362-940h271V0h-187c2-448-5-837 7-1287-157 497-311 829-483 1287H842C666-458 514-784 354-1284c12 438 5 843 7 1284H180" id="aa"/><g id="a"><use transform="matrix(0.0087890625,0,0,0.0087890625,0,0)" xlink:href="#V"/><use transform="matrix(0.0087890625,0,0,0.0087890625,12.990234375,0)" xlink:href="#W"/><use transform="matrix(0.0087890625,0,0,0.0087890625,17.82421875,0)" xlink:href="#X"/><use transform="matrix(0.0087890625,0,0,0.0087890625,29.6279296875,0)" xlink:href="#Y"/><use transform="matrix(0.0087890625,0,0,0.0087890625,43.0576171875,0)" xlink:href="#Z"/><use transform="matrix(0.0087890625,0,0,0.0087890625,54.6416015625,0)" xlink:href="#X"/><use transform="matrix(0.0087890625,0,0,0.0087890625,67.060546875,0)" xlink:href="#aa"/><use transform="matrix(0.0087890625,0,0,0.0087890625,83.3203125,0)" xlink:href="#X"/></g><path fill="#333" d="M180 0v-1490h908v168H370v486h669v168H370v500h727V0H180" id="ab"/><g id="b"><use transform="matrix(0.0087890625,0,0,0.0087890625,0,0)" xlink:href="#V"/><use transform="matrix(0.0087890625,0,0,0.0087890625,12.990234375,0)" xlink:href="#ab"/></g><path fill="#333" d="M783 20c-382 0-661-292-661-764 0-473 279-766 661-766 302 0 548 182 601 489h-190c-42-204-217-313-411-313-268 0-476 208-476 590 0 381 209 588 476 588 195 0 369-110 411-313h190c-52 303-296 489-601 489" id="ac"/><path fill="#333" d="M657 26c-323 0-524-166-541-416h195c15 169 171 246 346 246 202 0 356-106 356-265 5-203-294-238-475-293-239-73-380-191-380-389 0-252 224-419 512-419 294 0 499 171 508 396H992c-17-145-151-228-328-228-193 0-321 102-321 242 0 156 175 211 284 241l149 41c160 44 422 134 422 412 0 244-197 432-541 432" id="ad"/><path fill="#333" d="M784 20c-382 0-662-292-662-764 0-473 280-766 662-766s660 293 660 766c0 472-278 764-660 764zm0-176c266 0 475-207 475-588 0-383-209-590-475-590-268 0-477 208-477 590 0 380 209 588 477 588" id="ae"/><g id="c"><use transform="matrix(0.0087890625,0,0,0.0087890625,0,0)" xlink:href="#ac"/><use transform="matrix(0.0087890625,0,0,0.0087890625,12.796875,0)" xlink:href="#X"/><use transform="matrix(0.0087890625,0,0,0.0087890625,25.2158203125,0)" xlink:href="#ad"/><use transform="matrix(0.0087890625,0,0,0.0087890625,36.7646484375,0)" xlink:href="#ae"/><use transform="matrix(0.0087890625,0,0,0.0087890625,50.5283203125,0)" xlink:href="#ad"/></g><path fill="#333" d="M763 24c-353 0-583-224-583-531v-983h190v968c0 214 149 370 393 370 243 0 391-156 391-370v-968h190v983c0 307-230 531-581 531" id="af"/><g id="d"><use transform="matrix(0.0087890625,0,0,0.0087890625,0,0)" xlink:href="#af"/><use transform="matrix(0.0087890625,0,0,0.0087890625,13.39453125,0)" xlink:href="#ad"/><use transform="matrix(0.0087890625,0,0,0.0087890625,24.943359375,0)" xlink:href="#ae"/></g><g id="e"><use transform="matrix(0.0087890625,0,0,0.0087890625,0,0)" xlink:href="#V"/><use transform="matrix(0.0087890625,0,0,0.0087890625,12.990234375,0)" xlink:href="#ae"/></g><path fill="#333" d="M180 0v-1490h510c348 0 508 209 508 474 0 266-160 477-507 477H370V0H180zm190-706h312c236 0 327-133 327-310 0-176-91-307-329-307H370v617" id="ag"/><path fill="#333" d="M545 20c-263 0-445-160-445-446v-80h190v80c0 182 102 279 255 279 152 0 254-97 254-279v-1064h190v1064c0 286-181 446-444 446" id="ah"/><path fill="#333" d="M98-1322v-168h1126v168H757V0H567v-1322H98" id="ai"/><g id="f"><use transform="matrix(0.0087890625,0,0,0.0087890625,0,0)" xlink:href="#ag"/><use transform="matrix(0.0087890625,0,0,0.0087890625,11.49609375,0)" xlink:href="#Z"/><use transform="matrix(0.0087890625,0,0,0.0087890625,23.080078125,0)" xlink:href="#ae"/><use transform="matrix(0.0087890625,0,0,0.0087890625,36.84375,0)" xlink:href="#ah"/><use transform="matrix(0.0087890625,0,0,0.0087890625,47.1181640625,0)" xlink:href="#ab"/><use transform="matrix(0.0087890625,0,0,0.0087890625,57.9375,0)" xlink:href="#ai"/><use transform="matrix(0.0087890625,0,0,0.0087890625,69.0205078125,0)" xlink:href="#ae"/></g><path fill="#333" d="M57 0l534-763-501-727h220c122 187 296 416 391 605 94-191 272-419 396-605h215L811-770 1340 0h-219C986-204 811-426 699-640 588-430 407-202 273 0H57" id="aj"/><path fill="#333" d="M180 0v-1490h224l606 953c40 63 108 177 176 312-27-437-7-821-13-1265h190V0h-226C860-448 622-778 356-1262c27 476 11 792 15 1262H180" id="ak"/><path fill="#333" d="M52 0l541-1490h220L1361 0h-200l-149-416H398L254 0H52zm404-582h497c-103-290-145-390-251-756-108 377-145 460-246 756zm381-1103c-99 0-192-83-243-83-35 0-51 40-53 79H415c4-120 55-208 162-208 104 0 174 85 241 85 33 0 49-23 56-81h123c-4 126-62 208-160 208" id="al"/><g id="g"><use transform="matrix(0.0087890625,0,0,0.0087890625,0,0)" xlink:href="#ab"/><use transform="matrix(0.0087890625,0,0,0.0087890625,10.8193359375,0)" xlink:href="#aj"/><use transform="matrix(0.0087890625,0,0,0.0087890625,22.3857421875,0)" xlink:href="#ai"/><use transform="matrix(0.0087890625,0,0,0.0087890625,34.0048828125,0)" xlink:href="#ab"/><use transform="matrix(0.0087890625,0,0,0.0087890625,44.82421875,0)" xlink:href="#ak"/><use transform="matrix(0.0087890625,0,0,0.0087890625,58.3857421875,0)" xlink:href="#ad"/><use transform="matrix(0.0087890625,0,0,0.0087890625,69.9345703125,0)" xlink:href="#al"/><use transform="matrix(0.0087890625,0,0,0.0087890625,81.73828125,0)" xlink:href="#ae"/></g><path fill="#333" d="M653-1490V0H466v-1314h-10L96-1047v-204l324-239h233" id="am"/><use transform="matrix(0.0087890625,0,0,0.0087890625,0,0)" xlink:href="#am" id="h"/><path d="M180 0v-1490h510c348 0 508 209 508 474 0 266-160 477-507 477H370V0H180zm190-706h312c236 0 327-133 327-310 0-176-91-307-329-307H370v617" id="an"/><path d="M180 0v-1490h510c348 0 508 194 508 460 0 198-88 351-276 417L1256 0h-220L726-579c-117 2-238 0-356 1V0H180zm190-747h312c235 0 327-108 327-283 0-177-92-293-329-293H370v576" id="ao"/><path d="M784 20c-382 0-662-292-662-764 0-473 280-766 662-766s660 293 660 766c0 472-278 764-660 764zm0-176c266 0 475-207 475-588 0-383-209-590-475-590-268 0-477 208-477 590 0 380 209 588 477 588" id="ap"/><path d="M180 0v-1490h901v168H370v510h643v168H370V0H180" id="aq"/><path d="M180 0v-1490h908v168H370v486h669v168H370v500h727V0H180" id="ar"/><path d="M657 26c-323 0-524-166-541-416h195c15 169 171 246 346 246 202 0 356-106 356-265 5-203-294-238-475-293-239-73-380-191-380-389 0-252 224-419 512-419 294 0 499 171 508 396H992c-17-145-151-228-328-228-193 0-321 102-321 242 0 156 175 211 284 241l149 41c160 44 422 134 422 412 0 244-197 432-541 432" id="as"/><g id="i"><use transform="matrix(0.013020833333333334,0,0,0.013020833333333334,0,0)" xlink:href="#an"/><use transform="matrix(0.013020833333333334,0,0,0.013020833333333334,17.03125,0)" xlink:href="#ao"/><use transform="matrix(0.013020833333333334,0,0,0.013020833333333334,34.192708333333336,0)" xlink:href="#ap"/><use transform="matrix(0.013020833333333334,0,0,0.013020833333333334,54.583333333333336,0)" xlink:href="#aq"/><use transform="matrix(0.013020833333333334,0,0,0.013020833333333334,70.32552083333334,0)" xlink:href="#ar"/><use transform="matrix(0.013020833333333334,0,0,0.013020833333333334,86.35416666666669,0)" xlink:href="#as"/><use transform="matrix(0.013020833333333334,0,0,0.013020833333333334,103.46354166666669,0)" xlink:href="#as"/><use transform="matrix(0.013020833333333334,0,0,0.013020833333333334,120.5729166666667,0)" xlink:href="#ap"/><use transform="matrix(0.013020833333333334,0,0,0.013020833333333334,140.96354166666669,0)" xlink:href="#ao"/></g><path d="M52 0l541-1490h220L1361 0h-200l-149-416H398L254 0H52zm404-582h497c-103-290-145-390-251-756-108 377-145 460-246 756" id="at"/><path d="M645 0H180v-1490h484c435 0 692 280 692 742 0 466-257 748-711 748zM370-168h263c363 0 539-218 539-580 0-358-176-574-521-574H370v1154" id="au"/><path d="M180 0v-1490h270l367 940c28 72 75 218 110 339 35-117 81-264 110-339l362-940h271V0h-187c2-448-5-837 7-1287-157 497-311 829-483 1287H842C666-458 514-784 354-1284c12 438 5 843 7 1284H180" id="av"/><path d="M370-1490V0H180v-1490h190" id="aw"/><path d="M180 0v-1490h224l606 953c40 63 108 177 176 312-27-437-7-821-13-1265h190V0h-226C860-448 622-778 356-1262c27 476 11 792 15 1262H180" id="ax"/><path d="M98-1322v-168h1126v168H757V0H567v-1322H98" id="ay"/><g id="j"><use transform="matrix(0.013020833333333334,0,0,0.013020833333333334,0,0)" xlink:href="#at"/><use transform="matrix(0.013020833333333334,0,0,0.013020833333333334,18.3984375,0)" xlink:href="#au"/><use transform="matrix(0.013020833333333334,0,0,0.013020833333333334,37.64322916666667,0)" xlink:href="#av"/><use transform="matrix(0.013020833333333334,0,0,0.013020833333333334,61.73177083333335,0)" xlink:href="#aw"/><use transform="matrix(0.013020833333333334,0,0,0.013020833333333334,68.89322916666667,0)" xlink:href="#ax"/><use transform="matrix(0.013020833333333334,0,0,0.013020833333333334,88.984375,0)" xlink:href="#aw"/><use transform="matrix(0.013020833333333334,0,0,0.013020833333333334,96.14583333333333,0)" xlink:href="#as"/><use transform="matrix(0.013020833333333334,0,0,0.013020833333333334,113.25520833333334,0)" xlink:href="#ay"/><use transform="matrix(0.013020833333333334,0,0,0.013020833333333334,130.46875,0)" xlink:href="#ao"/><use transform="matrix(0.013020833333333334,0,0,0.013020833333333334,147.63020833333334,0)" xlink:href="#at"/><use transform="matrix(0.013020833333333334,0,0,0.013020833333333334,166.02864583333334,0)" xlink:href="#au"/><use transform="matrix(0.013020833333333334,0,0,0.013020833333333334,185.2734375,0)" xlink:href="#ap"/><use transform="matrix(0.013020833333333334,0,0,0.013020833333333334,205.6640625,0)" xlink:href="#ao"/></g><path d="M763 24c-353 0-583-224-583-531v-983h190v968c0 214 149 370 393 370 243 0 391-156 391-370v-968h190v983c0 307-230 531-581 531" id="az"/><path d="M52 0l541-1490h220L1361 0h-200l-149-416H398L254 0H52zm404-582h497c-103-290-145-390-251-756-108 377-145 460-246 756zm171-1054l140-294h201l-194 294H627" id="aA"/><g id="k"><use transform="matrix(0.013020833333333334,0,0,0.013020833333333334,0,0)" xlink:href="#az"/><use transform="matrix(0.013020833333333334,0,0,0.013020833333333334,19.84375,0)" xlink:href="#as"/><use transform="matrix(0.013020833333333334,0,0,0.013020833333333334,36.953125,0)" xlink:href="#az"/><use transform="matrix(0.013020833333333334,0,0,0.013020833333333334,56.27604166666667,0)" xlink:href="#aA"/><use transform="matrix(0.013020833333333334,0,0,0.013020833333333334,74.67447916666666,0)" xlink:href="#ao"/><use transform="matrix(0.013020833333333334,0,0,0.013020833333333334,91.8359375,0)" xlink:href="#aw"/><use transform="matrix(0.013020833333333334,0,0,0.013020833333333334,98.99739583333333,0)" xlink:href="#ap"/></g><path d="M783 20c-382 0-661-292-661-764 0-473 279-766 661-766 302 0 548 182 601 489h-190c-42-204-217-313-411-313-268 0-476 208-476 590 0 381 209 588 476 588 195 0 369-110 411-313h190c-52 303-296 489-601 489" id="aB"/><g id="l"><use transform="matrix(0.008173828125000001,0,0,0.008173828125000001,0,0)" xlink:href="#aB"/><use transform="matrix(0.008173828125000001,0,0,0.008173828125000001,12.228046875000002,0)" xlink:href="#ao"/><use transform="matrix(0.008173828125000001,0,0,0.008173828125000001,23.001152343750004,0)" xlink:href="#az"/><use transform="matrix(0.008173828125000001,0,0,0.008173828125000001,35.458066406250005,0)" xlink:href="#au"/></g><g id="m"><use transform="matrix(0.008173828125000001,0,0,0.008173828125000001,0,0)" xlink:href="#au"/><use transform="matrix(0.008173828125000001,0,0,0.008173828125000001,12.08091796875,0)" xlink:href="#ar"/></g><g id="n"><use transform="matrix(0.008173828125000001,0,0,0.008173828125000001,0,0)" xlink:href="#ay"/><use transform="matrix(0.008173828125000001,0,0,0.008173828125000001,10.805800781250001,0)" xlink:href="#az"/><use transform="matrix(0.008173828125000001,0,0,0.008173828125000001,23.262714843750004,0)" xlink:href="#ao"/><use transform="matrix(0.008173828125000001,0,0,0.008173828125000001,34.03582031250001,0)" xlink:href="#av"/><use transform="matrix(0.008173828125000001,0,0,0.008173828125000001,49.15740234375001,0)" xlink:href="#at"/><use transform="matrix(0.008173828125000001,0,0,0.008173828125000001,60.707021484375005,0)" xlink:href="#as"/></g><g id="o"><use transform="matrix(0.008173828125000001,0,0,0.008173828125000001,0,0)" xlink:href="#aB"/><use transform="matrix(0.008173828125000001,0,0,0.008173828125000001,11.901093750000003,0)" xlink:href="#at"/><use transform="matrix(0.008173828125000001,0,0,0.008173828125000001,23.450712890625006,0)" xlink:href="#au"/><use transform="matrix(0.008173828125000001,0,0,0.008173828125000001,34.959462890625005,0)" xlink:href="#at"/><use transform="matrix(0.008173828125000001,0,0,0.008173828125000001,46.50908203125,0)" xlink:href="#as"/><use transform="matrix(0.008173828125000001,0,0,0.008173828125000001,57.24949218750001,0)" xlink:href="#ay"/><use transform="matrix(0.008173828125000001,0,0,0.008173828125000001,68.05529296875001,0)" xlink:href="#ao"/><use transform="matrix(0.008173828125000001,0,0,0.008173828125000001,78.82839843750001,0)" xlink:href="#at"/><use transform="matrix(0.008173828125000001,0,0,0.008173828125000001,90.37801757812501,0)" xlink:href="#ao"/></g><use transform="matrix(0.008173828125000001,0,0,0.008173828125000001,0,0)" xlink:href="#ap" id="p"/><path d="M180 0v-1490h190v1322h690V0H180" id="aC"/><g id="q"><use transform="matrix(0.008173828125000001,0,0,0.008173828125000001,0,0)" xlink:href="#at"/><use transform="matrix(0.008173828125000001,0,0,0.008173828125000001,11.549619140625001,0)" xlink:href="#aC"/><use transform="matrix(0.008173828125000001,0,0,0.008173828125000001,21.014912109375004,0)" xlink:href="#az"/><use transform="matrix(0.008173828125000001,0,0,0.008173828125000001,33.47182617187501,0)" xlink:href="#ax"/><use transform="matrix(0.008173828125000001,0,0,0.008173828125000001,46.08404296875001,0)" xlink:href="#ap"/></g><g id="r"><use transform="matrix(0.008173828125000001,0,0,0.008173828125000001,0,0)" xlink:href="#ax"/><use transform="matrix(0.008173828125000001,0,0,0.008173828125000001,12.612216796875002,0)" xlink:href="#at"/></g><g id="s"><use transform="matrix(0.008173828125000001,0,0,0.008173828125000001,0,0)" xlink:href="#aC"/><use transform="matrix(0.008173828125000001,0,0,0.008173828125000001,9.465292968750001,0)" xlink:href="#aw"/><use transform="matrix(0.008173828125000001,0,0,0.008173828125000001,13.960898437500003,0)" xlink:href="#as"/><use transform="matrix(0.008173828125000001,0,0,0.008173828125000001,24.701308593750007,0)" xlink:href="#ay"/><use transform="matrix(0.008173828125000001,0,0,0.008173828125000001,34.08486328125001,0)" xlink:href="#at"/></g><g id="t"><use transform="matrix(0.008173828125000001,0,0,0.008173828125000001,0,0)" xlink:href="#au"/><use transform="matrix(0.008173828125000001,0,0,0.008173828125000001,12.08091796875,0)" xlink:href="#ar"/></g><g id="u"><use transform="matrix(0.008173828125000001,0,0,0.008173828125000001,0,0)" xlink:href="#ar"/><use transform="matrix(0.008173828125000001,0,0,0.008173828125000001,10.061982421875001,0)" xlink:href="#as"/><use transform="matrix(0.008173828125000001,0,0,0.008173828125000001,20.802392578125,0)" xlink:href="#an"/><use transform="matrix(0.008173828125000001,0,0,0.008173828125000001,31.493759765625,0)" xlink:href="#ar"/><use transform="matrix(0.008173828125000001,0,0,0.008173828125000001,41.5557421875,0)" xlink:href="#ao"/><use transform="matrix(0.008173828125000001,0,0,0.008173828125000001,52.328847656250005,0)" xlink:href="#at"/></g><path d="M130 0v-134l666-991c45-67 96-135 147-202-269 9-546 3-821 5v-168h1036v136L502-379c-49 72-103 145-157 216 268-9 546-3 821-5V0H130" id="aD"/><g id="v"><use transform="matrix(0.008173828125000001,0,0,0.008173828125000001,0,0)" xlink:href="#ao"/><use transform="matrix(0.008173828125000001,0,0,0.008173828125000001,10.773105468750002,0)" xlink:href="#ar"/><use transform="matrix(0.008173828125000001,0,0,0.008173828125000001,20.835087890625005,0)" xlink:href="#at"/><use transform="matrix(0.008173828125000001,0,0,0.008173828125000001,32.38470703125,0)" xlink:href="#aC"/><use transform="matrix(0.008173828125000001,0,0,0.008173828125000001,41.85000000000001,0)" xlink:href="#aw"/><use transform="matrix(0.008173828125000001,0,0,0.008173828125000001,46.34560546875,0)" xlink:href="#aD"/><use transform="matrix(0.008173828125000001,0,0,0.008173828125000001,56.873496093750006,0)" xlink:href="#at"/><use transform="matrix(0.008173828125000001,0,0,0.008173828125000001,68.423115234375,0)" xlink:href="#ao"/></g><path d="M789 20c-398 0-667-293-667-764 0-473 273-766 655-766 315 0 558 198 612 487h-196c-61-191-204-311-415-311-262 0-471 207-471 590 0 380 208 588 482 588 249 0 420-165 425-427H828v-166h572v163c0 370-256 606-611 606" id="aE"/><g id="w"><use transform="matrix(0.008173828125000001,0,0,0.008173828125000001,0,0)" xlink:href="#aC"/><use transform="matrix(0.008173828125000001,0,0,0.008173828125000001,8.9912109375,0)" xlink:href="#ap"/><use transform="matrix(0.008173828125000001,0,0,0.008173828125000001,21.791425781250002,0)" xlink:href="#aE"/><use transform="matrix(0.008173828125000001,0,0,0.008173828125000001,34.281035156250006,0)" xlink:href="#aw"/><use transform="matrix(0.008173828125000001,0,0,0.008173828125000001,38.776640625000006,0)" xlink:href="#ax"/></g><path d="M600 0L52-1490h200c166 485 304 806 458 1336 156-533 285-846 449-1336h202L819 0H600" id="aF"/><g id="x"><use transform="matrix(0.008173828125000001,0,0,0.008173828125000001,0,0)" xlink:href="#aF"/><use transform="matrix(0.008173828125000001,0,0,0.008173828125000001,11.549619140625001,0)" xlink:href="#aw"/><use transform="matrix(0.008173828125000001,0,0,0.008173828125000001,16.045224609375,0)" xlink:href="#aD"/><use transform="matrix(0.008173828125000001,0,0,0.008173828125000001,26.573115234375003,0)" xlink:href="#az"/><use transform="matrix(0.008173828125000001,0,0,0.008173828125000001,38.703076171875004,0)" xlink:href="#at"/><use transform="matrix(0.008173828125000001,0,0,0.008173828125000001,50.25269531250001,0)" xlink:href="#aC"/><use transform="matrix(0.008173828125000001,0,0,0.008173828125000001,59.71798828125001,0)" xlink:href="#aw"/><use transform="matrix(0.008173828125000001,0,0,0.008173828125000001,64.21359375000002,0)" xlink:href="#aD"/><use transform="matrix(0.008173828125000001,0,0,0.008173828125000001,74.74148437500001,0)" xlink:href="#at"/><use transform="matrix(0.008173828125000001,0,0,0.008173828125000001,86.29110351562501,0)" xlink:href="#ao"/></g><g id="y"><use transform="matrix(0.008173828125000001,0,0,0.008173828125000001,0,0)" xlink:href="#as"/><use transform="matrix(0.008173828125000001,0,0,0.008173828125000001,10.740410156250002,0)" xlink:href="#az"/><use transform="matrix(0.008173828125000001,0,0,0.008173828125000001,22.870371093750002,0)" xlink:href="#at"/><use transform="matrix(0.008173828125000001,0,0,0.008173828125000001,34.41999023437501,0)" xlink:href="#as"/></g><g id="z"><use transform="matrix(0.008173828125000001,0,0,0.008173828125000001,0,0)" xlink:href="#aB"/><use transform="matrix(0.008173828125000001,0,0,0.008173828125000001,12.228046875000002,0)" xlink:href="#ap"/><use transform="matrix(0.008173828125000001,0,0,0.008173828125000001,25.028261718750002,0)" xlink:href="#av"/><use transform="matrix(0.008173828125000001,0,0,0.008173828125000001,40.14984375,0)" xlink:href="#az"/><use transform="matrix(0.008173828125000001,0,0,0.008173828125000001,52.60675781250001,0)" xlink:href="#ax"/><use transform="matrix(0.008173828125000001,0,0,0.008173828125000001,65.21897460937501,0)" xlink:href="#aw"/><use transform="matrix(0.008173828125000001,0,0,0.008173828125000001,69.71458007812501,0)" xlink:href="#aB"/><use transform="matrix(0.008173828125000001,0,0,0.008173828125000001,81.61567382812501,0)" xlink:href="#at"/><use transform="matrix(0.008173828125000001,0,0,0.008173828125000001,93.16529296875001,0)" xlink:href="#ao"/></g><g id="A"><use transform="matrix(0.008173828125000001,0,0,0.008173828125000001,0,0)" xlink:href="#at"/><use transform="matrix(0.008173828125000001,0,0,0.008173828125000001,11.549619140625001,0)" xlink:href="#aC"/><use transform="matrix(0.008173828125000001,0,0,0.008173828125000001,21.014912109375004,0)" xlink:href="#az"/><use transform="matrix(0.008173828125000001,0,0,0.008173828125000001,33.47182617187501,0)" xlink:href="#ax"/><use transform="matrix(0.008173828125000001,0,0,0.008173828125000001,46.08404296875001,0)" xlink:href="#ap"/></g><g id="B"><use transform="matrix(0.008173828125000001,0,0,0.008173828125000001,0,0)" xlink:href="#av"/><use transform="matrix(0.008173828125000001,0,0,0.008173828125000001,15.121582031250002,0)" xlink:href="#ap"/><use transform="matrix(0.008173828125000001,0,0,0.008173828125000001,27.921796875000005,0)" xlink:href="#au"/><use transform="matrix(0.008173828125000001,0,0,0.008173828125000001,39.430546875000005,0)" xlink:href="#at"/><use transform="matrix(0.008173828125000001,0,0,0.008173828125000001,50.980166015624995,0)" xlink:href="#aC"/><use transform="matrix(0.008173828125000001,0,0,0.008173828125000001,60.445458984375,0)" xlink:href="#aw"/><use transform="matrix(0.008173828125000001,0,0,0.008173828125000001,64.94106445312501,0)" xlink:href="#au"/><use transform="matrix(0.008173828125000001,0,0,0.008173828125000001,76.44981445312501,0)" xlink:href="#at"/><use transform="matrix(0.008173828125000001,0,0,0.008173828125000001,87.99943359375001,0)" xlink:href="#au"/><use transform="matrix(0.008173828125000001,0,0,0.008173828125000001,100.08035156250001,0)" xlink:href="#ar"/></g><path fill="#333" d="M174-520v-126l944-476v196L406-588v12l712 338v194" id="aG"/><path fill="#333" d="M158 0v-1118h180V0H158zm91-1301c-68 0-125-53-125-119s57-119 125-119c69 0 126 53 126 119s-57 119-126 119" id="aH"/><path fill="#333" d="M338-670V0H158v-1118h173l1 207c72-158 192-221 342-221 226 0 378 139 378 422V0H872v-695c0-172-96-275-252-275-161 0-282 109-282 300" id="aI"/><path fill="#333" d="M613 24c-304 0-509-231-509-576 0-350 205-580 509-580 216 0 392 114 453 309l-173 49c-33-115-133-197-280-197-223 0-326 196-326 419 0 220 103 415 326 415 150 0 252-85 285-206l172 49C1010-95 832 24 613 24" id="aJ"/><path fill="#333" d="M338-1490V0H158v-1490h180" id="aK"/><path fill="#333" d="M537 14c-226 0-379-139-379-422v-710h180v695c0 172 97 275 253 275 160 0 281-109 281-300v-670h181V0H879v-209C806-46 684 14 537 14" id="aL"/><path fill="#333" d="M577 24c-279 0-473-224-473-580 0-354 195-576 474-576 218 0 287 134 324 193h14v-551h180V0H922v-173h-20C865-111 790 24 577 24zm27-161c203 0 314-172 314-421 0-247-108-413-314-413-212 0-317 181-317 413 0 235 108 421 317 421" id="aM"/><path fill="#333" d="M628 24c-324 0-524-230-524-574 0-343 198-582 503-582 237 0 487 146 487 559v75H286c9 234 145 362 343 362 132 0 231-58 273-172l174 48C1024-91 857 24 628 24zM287-650h624c-17-190-120-322-304-322-192 0-309 151-320 322" id="aN"/><path fill="#333" d="M1181-520L237-44v-194l712-338v-12L237-926v-196l944 476v126" id="aO"/><g id="C"><use transform="matrix(0.009765625,0,0,0.009765625,0,0)" xlink:href="#aG"/><use transform="matrix(0.009765625,0,0,0.009765625,13.232421875,0)" xlink:href="#aG"/><use transform="matrix(0.009765625,0,0,0.009765625,26.46484375,0)" xlink:href="#aH"/><use transform="matrix(0.009765625,0,0,0.009765625,31.30859375,0)" xlink:href="#aI"/><use transform="matrix(0.009765625,0,0,0.009765625,43.125,0)" xlink:href="#aJ"/><use transform="matrix(0.009765625,0,0,0.009765625,54.55078125,0)" xlink:href="#aK"/><use transform="matrix(0.009765625,0,0,0.009765625,59.39453125,0)" xlink:href="#aL"/><use transform="matrix(0.009765625,0,0,0.009765625,71.220703125,0)" xlink:href="#aM"/><use transform="matrix(0.009765625,0,0,0.009765625,83.466796875,0)" xlink:href="#aN"/><use transform="matrix(0.009765625,0,0,0.009765625,95.126953125,0)" xlink:href="#aO"/><use transform="matrix(0.009765625,0,0,0.009765625,108.359375,0)" xlink:href="#aO"/></g><g id="D"><use transform="matrix(0.008173828125000001,0,0,0.008173828125000001,0,0)" xlink:href="#ao"/><use transform="matrix(0.008173828125000001,0,0,0.008173828125000001,10.773105468750002,0)" xlink:href="#ar"/><use transform="matrix(0.008173828125000001,0,0,0.008173828125000001,20.835087890625005,0)" xlink:href="#at"/><use transform="matrix(0.008173828125000001,0,0,0.008173828125000001,32.38470703125,0)" xlink:href="#aC"/><use transform="matrix(0.008173828125000001,0,0,0.008173828125000001,41.85000000000001,0)" xlink:href="#aw"/><use transform="matrix(0.008173828125000001,0,0,0.008173828125000001,46.34560546875,0)" xlink:href="#aD"/><use transform="matrix(0.008173828125000001,0,0,0.008173828125000001,56.873496093750006,0)" xlink:href="#at"/><use transform="matrix(0.008173828125000001,0,0,0.008173828125000001,68.423115234375,0)" xlink:href="#ao"/></g><g id="E"><use transform="matrix(0.008173828125000001,0,0,0.008173828125000001,0,0)" xlink:href="#aB"/><use transform="matrix(0.008173828125000001,0,0,0.008173828125000001,11.901093750000003,0)" xlink:href="#at"/><use transform="matrix(0.008173828125000001,0,0,0.008173828125000001,23.450712890625006,0)" xlink:href="#au"/><use transform="matrix(0.008173828125000001,0,0,0.008173828125000001,34.959462890625005,0)" xlink:href="#at"/><use transform="matrix(0.008173828125000001,0,0,0.008173828125000001,46.50908203125,0)" xlink:href="#as"/><use transform="matrix(0.008173828125000001,0,0,0.008173828125000001,57.24949218750001,0)" xlink:href="#ay"/><use transform="matrix(0.008173828125000001,0,0,0.008173828125000001,68.05529296875001,0)" xlink:href="#ao"/><use transform="matrix(0.008173828125000001,0,0,0.008173828125000001,78.82839843750001,0)" xlink:href="#ap"/></g><g id="F"><use transform="matrix(0.008173828125000001,0,0,0.008173828125000001,0,0)" xlink:href="#au"/><use transform="matrix(0.008173828125000001,0,0,0.008173828125000001,12.08091796875,0)" xlink:href="#ap"/></g><g id="G"><use transform="matrix(0.008173828125000001,0,0,0.008173828125000001,0,0)" xlink:href="#au"/><use transform="matrix(0.008173828125000001,0,0,0.008173828125000001,12.08091796875,0)" xlink:href="#aw"/><use transform="matrix(0.008173828125000001,0,0,0.008173828125000001,16.5765234375,0)" xlink:href="#at"/><use transform="matrix(0.008173828125000001,0,0,0.008173828125000001,28.126142578125002,0)" xlink:href="#ao"/><use transform="matrix(0.008173828125000001,0,0,0.008173828125000001,38.899248046875,0)" xlink:href="#aw"/><use transform="matrix(0.008173828125000001,0,0,0.008173828125000001,43.394853515625,0)" xlink:href="#ap"/></g><g id="H"><use transform="matrix(0.008173828125000001,0,0,0.008173828125000001,0,0)" xlink:href="#aB"/><use transform="matrix(0.008173828125000001,0,0,0.008173828125000001,12.228046875000002,0)" xlink:href="#aC"/><use transform="matrix(0.008173828125000001,0,0,0.008173828125000001,21.693339843750003,0)" xlink:href="#at"/><use transform="matrix(0.008173828125000001,0,0,0.008173828125000001,33.24295898437501,0)" xlink:href="#as"/><use transform="matrix(0.008173828125000001,0,0,0.008173828125000001,43.98336914062501,0)" xlink:href="#as"/><use transform="matrix(0.008173828125000001,0,0,0.008173828125000001,54.72377929687501,0)" xlink:href="#ar"/></g><g id="I"><use transform="matrix(0.008173828125000001,0,0,0.008173828125000001,0,0)" xlink:href="#aF"/><use transform="matrix(0.008173828125000001,0,0,0.008173828125000001,11.549619140625001,0)" xlink:href="#aw"/><use transform="matrix(0.008173828125000001,0,0,0.008173828125000001,16.045224609375,0)" xlink:href="#aD"/><use transform="matrix(0.008173828125000001,0,0,0.008173828125000001,26.573115234375003,0)" xlink:href="#az"/><use transform="matrix(0.008173828125000001,0,0,0.008173828125000001,38.703076171875004,0)" xlink:href="#at"/><use transform="matrix(0.008173828125000001,0,0,0.008173828125000001,50.25269531250001,0)" xlink:href="#aC"/><use transform="matrix(0.008173828125000001,0,0,0.008173828125000001,59.71798828125001,0)" xlink:href="#aw"/><use transform="matrix(0.008173828125000001,0,0,0.008173828125000001,64.21359375000002,0)" xlink:href="#aD"/><use transform="matrix(0.008173828125000001,0,0,0.008173828125000001,74.74148437500001,0)" xlink:href="#at"/><use transform="matrix(0.008173828125000001,0,0,0.008173828125000001,86.29110351562501,0)" xlink:href="#ao"/></g><g id="J"><use transform="matrix(0.008173828125000001,0,0,0.008173828125000001,0,0)" xlink:href="#at"/><use transform="matrix(0.008173828125000001,0,0,0.008173828125000001,10.977451171875002,0)" xlink:href="#aB"/><use transform="matrix(0.008173828125000001,0,0,0.008173828125000001,23.205498046875004,0)" xlink:href="#ar"/><use transform="matrix(0.008173828125000001,0,0,0.008173828125000001,33.26748046875001,0)" xlink:href="#aw"/><use transform="matrix(0.008173828125000001,0,0,0.008173828125000001,37.76308593750001,0)" xlink:href="#ay"/><use transform="matrix(0.008173828125000001,0,0,0.008173828125000001,47.14664062500001,0)" xlink:href="#at"/><use transform="matrix(0.008173828125000001,0,0,0.008173828125000001,58.696259765625015,0)" xlink:href="#ao"/></g><g id="K"><use transform="matrix(0.008173828125000001,0,0,0.008173828125000001,0,0)" xlink:href="#ap"/><use transform="matrix(0.008173828125000001,0,0,0.008173828125000001,12.800214843750002,0)" xlink:href="#az"/></g><g id="L"><use transform="matrix(0.008173828125000001,0,0,0.008173828125000001,0,0)" xlink:href="#ao"/><use transform="matrix(0.008173828125000001,0,0,0.008173828125000001,10.773105468750002,0)" xlink:href="#ar"/><use transform="matrix(0.008173828125000001,0,0,0.008173828125000001,20.835087890625005,0)" xlink:href="#av"/><use transform="matrix(0.008173828125000001,0,0,0.008173828125000001,35.956669921875005,0)" xlink:href="#ap"/><use transform="matrix(0.008173828125000001,0,0,0.008173828125000001,48.192890625000004,0)" xlink:href="#aF"/><use transform="matrix(0.008173828125000001,0,0,0.008173828125000001,59.742509765625,0)" xlink:href="#ar"/><use transform="matrix(0.008173828125000001,0,0,0.008173828125000001,69.8044921875,0)" xlink:href="#ao"/></g><g id="M"><use transform="matrix(0.008173828125000001,0,0,0.008173828125000001,0,0)" xlink:href="#au"/><use transform="matrix(0.008173828125000001,0,0,0.008173828125000001,11.508750000000001,0)" xlink:href="#at"/></g><path fill="#333" d="M65 0l393-574-370-544h210c88 136 192 297 267 435 67-142 176-302 264-435h206L661-564 1053 0H844c-94-144-206-310-287-458C484-308 366-142 273 0H65" id="aP"/><path fill="#333" d="M598-1118v154H368v674c0 100 37 144 132 144 23 0 62-6 92-12L629-6c-37 13-88 20-134 20-193 0-307-107-307-290v-688H20v-154h168v-266h180v266h230" id="aQ"/><path fill="#333" d="M538 24C308 24 148-78 108-271l171-41c32 123 123 178 257 178 156 0 256-77 256-169 0-77-54-128-164-154l-186-44c-203-48-300-148-300-305 0-192 176-326 414-326 230 0 351 112 402 269l-163 42c-31-80-94-158-238-158-133 0-233 69-233 162 0 83 57 129 188 160l169 40c203 48 298 149 298 302 0 196-179 339-441 339" id="aR"/><g id="N"><use transform="matrix(0.009765625,0,0,0.009765625,0,0)" xlink:href="#aG"/><use transform="matrix(0.009765625,0,0,0.009765625,13.232421875,0)" xlink:href="#aG"/><use transform="matrix(0.009765625,0,0,0.009765625,26.46484375,0)" xlink:href="#aN"/><use transform="matrix(0.009765625,0,0,0.009765625,37.67578125,0)" xlink:href="#aP"/><use transform="matrix(0.009765625,0,0,0.009765625,48.984375,0)" xlink:href="#aQ"/><use transform="matrix(0.009765625,0,0,0.009765625,55.33203125,0)" xlink:href="#aN"/><use transform="matrix(0.009765625,0,0,0.009765625,66.9921875,0)" xlink:href="#aI"/><use transform="matrix(0.009765625,0,0,0.009765625,78.80859375,0)" xlink:href="#aM"/><use transform="matrix(0.009765625,0,0,0.009765625,91.0546875,0)" xlink:href="#aR"/><use transform="matrix(0.009765625,0,0,0.009765625,101.611328125,0)" xlink:href="#aO"/><use transform="matrix(0.009765625,0,0,0.009765625,114.84375,0)" xlink:href="#aO"/></g><g id="O"><use transform="matrix(0.008173828125000001,0,0,0.008173828125000001,0,0)" xlink:href="#ao"/><use transform="matrix(0.008173828125000001,0,0,0.008173828125000001,10.773105468750002,0)" xlink:href="#ar"/><use transform="matrix(0.008173828125000001,0,0,0.008173828125000001,20.835087890625005,0)" xlink:href="#av"/><use transform="matrix(0.008173828125000001,0,0,0.008173828125000001,35.956669921875005,0)" xlink:href="#ap"/><use transform="matrix(0.008173828125000001,0,0,0.008173828125000001,48.192890625000004,0)" xlink:href="#aF"/><use transform="matrix(0.008173828125000001,0,0,0.008173828125000001,59.742509765625,0)" xlink:href="#ar"/><use transform="matrix(0.008173828125000001,0,0,0.008173828125000001,69.8044921875,0)" xlink:href="#ao"/></g><g id="P"><use transform="matrix(0.008173828125000001,0,0,0.008173828125000001,0,0)" xlink:href="#au"/><use transform="matrix(0.008173828125000001,0,0,0.008173828125000001,11.508750000000001,0)" xlink:href="#at"/></g><g id="Q"><use transform="matrix(0.008173828125000001,0,0,0.008173828125000001,0,0)" xlink:href="#ay"/><use transform="matrix(0.008173828125000001,0,0,0.008173828125000001,10.805800781250001,0)" xlink:href="#az"/><use transform="matrix(0.008173828125000001,0,0,0.008173828125000001,23.262714843750004,0)" xlink:href="#ao"/><use transform="matrix(0.008173828125000001,0,0,0.008173828125000001,34.03582031250001,0)" xlink:href="#av"/><use transform="matrix(0.008173828125000001,0,0,0.008173828125000001,49.15740234375001,0)" xlink:href="#at"/></g><g id="R"><use transform="matrix(0.008173828125000001,0,0,0.008173828125000001,0,0)" xlink:href="#an"/><use transform="matrix(0.008173828125000001,0,0,0.008173828125000001,10.691367187500001,0)" xlink:href="#ao"/><use transform="matrix(0.008173828125000001,0,0,0.008173828125000001,21.464472656250003,0)" xlink:href="#ap"/><use transform="matrix(0.008173828125000001,0,0,0.008173828125000001,34.26468750000001,0)" xlink:href="#aq"/><use transform="matrix(0.008173828125000001,0,0,0.008173828125000001,44.14684570312501,0)" xlink:href="#ar"/><use transform="matrix(0.008173828125000001,0,0,0.008173828125000001,54.20882812500001,0)" xlink:href="#as"/><use transform="matrix(0.008173828125000001,0,0,0.008173828125000001,64.94923828125002,0)" xlink:href="#as"/><use transform="matrix(0.008173828125000001,0,0,0.008173828125000001,75.68964843750003,0)" xlink:href="#ap"/><use transform="matrix(0.008173828125000001,0,0,0.008173828125000001,88.48986328125002,0)" xlink:href="#ao"/><use transform="matrix(0.008173828125000001,0,0,0.008173828125000001,99.26296875000003,0)" xlink:href="#ar"/><use transform="matrix(0.008173828125000001,0,0,0.008173828125000001,109.32495117187503,0)" xlink:href="#as"/></g><use transform="matrix(0.008173828125000001,0,0,0.008173828125000001,0,0)" xlink:href="#at" id="S"/><g id="T"><use transform="matrix(0.008173828125000001,0,0,0.008173828125000001,0,0)" xlink:href="#aC"/><use transform="matrix(0.008173828125000001,0,0,0.008173828125000001,9.465292968750001,0)" xlink:href="#aw"/><use transform="matrix(0.008173828125000001,0,0,0.008173828125000001,13.960898437500003,0)" xlink:href="#as"/><use transform="matrix(0.008173828125000001,0,0,0.008173828125000001,24.701308593750007,0)" xlink:href="#ay"/><use transform="matrix(0.008173828125000001,0,0,0.008173828125000001,34.08486328125001,0)" xlink:href="#at"/></g><g id="U"><use transform="matrix(0.008173828125000001,0,0,0.008173828125000001,0,0)" xlink:href="#at"/><use transform="matrix(0.008173828125000001,0,0,0.008173828125000001,11.549619140625001,0)" xlink:href="#aC"/><use transform="matrix(0.008173828125000001,0,0,0.008173828125000001,21.014912109375004,0)" xlink:href="#az"/><use transform="matrix(0.008173828125000001,0,0,0.008173828125000001,33.47182617187501,0)" xlink:href="#ax"/><use transform="matrix(0.008173828125000001,0,0,0.008173828125000001,46.08404296875001,0)" xlink:href="#ap"/><use transform="matrix(0.008173828125000001,0,0,0.008173828125000001,58.88425781250001,0)" xlink:href="#as"/></g></defs></g></svg>